<?xml version="1.0" encoding="UTF-8"?>
<svg id="Layer_1" data-name="Layer 1" xmlns="http://www.w3.org/2000/svg" version="1.1" viewBox="0 0 135 135">
  <defs>
    <style>
      .cls-1 {
        fill: #FF0000;
      }

      .cls-1, .cls-2 {
        stroke-width: 0px;
      }

      .cls-2 {
        fill: #FF0000;
      }
    </style>
  </defs>
  <path class="cls-2" d="M32.4,129.28c-3.42-9.04-6.9-18.39-6.9-28.28,0-14.03,4.41-26.33,9.09-39.36l.88-2.47c.16-.77.32-1.48.48-2.21,1.01-4.57,2.16-9.74-.52-14.21-5.26-9.02-15.18-10.91-22.58-10.91-2.44,0-5.02.21-7.65.61,8.03-3.22,15.78-6.12,24.84-6.94,1.33-.08,2.71-.13,4.08-.13,13.66,0,26.54,4.03,41.69,10.09,2.55,1.09,5.4,1.67,8.22,1.67,5.4,0,10.27-2.12,13.35-5.82,6.31-8.12,6.18-17.92,4.84-27.02,4.54,11.26,8.15,22.36,7.28,33.66-.88,11.5-4.14,23.88-9.96,37.85-2.76,7.35-2.57,17.14,6.2,22.62,5.25,2.92,11.03,4.33,17.7,4.33h0c2.4,0,4.9-.18,7.54-.55-9.85,4.05-19.71,6.45-30.02,7.31-.89.06-1.81.08-2.72.08-9.64,0-18.51-3.07-27.92-6.32-4.9-1.69-9.96-3.44-15.2-4.75-2.07-.41-3.88-.61-5.56-.61-3.54,0-6.44.88-8.86,2.7-8.75,8.75-9.42,20.23-8.3,28.68Z"/>
  <path class="cls-1" d="M103.21,8.16c3.8,9.94,6.56,19.79,5.8,29.76-.88,11.45-4.13,23.78-9.94,37.73-2.82,7.52-2.62,17.56,6.41,23.2h.02s.02.03.02.03c5.3,2.94,11.16,4.38,17.92,4.38,1.26,0,2.54-.05,3.86-.15-8.64,3.21-17.33,5.15-26.36,5.9-.89.06-1.8.08-2.7.08-9.55,0-18.39-3.06-27.75-6.29-4.91-1.7-9.98-3.45-15.29-4.78-2.08-.42-3.92-.62-5.64-.62-3.65,0-6.65.92-9.16,2.8l-.06.04-.05.05c-6.32,6.32-9.31,15.07-8.77,25.24-2.91-7.88-5.53-16.02-5.53-24.53,0-13.94,4.4-26.21,9.06-39.19l.88-2.47.02-.07v-.07c.15-.69.31-1.41.47-2.13,1.03-4.66,2.2-9.94-.58-14.57-4.26-7.3-12.22-11.16-23.01-11.16-1.27,0-2.57.06-3.89.16,6.76-2.61,13.48-4.81,21.11-5.5,1.34-.08,2.71-.13,4.07-.13,13.58,0,26.41,4.02,41.48,10.05,2.62,1.12,5.54,1.72,8.43,1.72,5.55,0,10.56-2.19,13.76-6.02,5.51-7.09,6.2-15.41,5.42-23.45M101,0c2,11,3,22-4,31-3.21,3.85-8.05,5.64-12.97,5.64-2.75,0-5.52-.56-8.03-1.64-13.7-5.48-27.41-10.13-41.87-10.13-1.37,0-2.74.04-4.13.13-11,1-20,5-30,9,4-1,8.44-1.67,12.85-1.67,8.81,0,17.48,2.67,22.15,10.67,3,5,1,11,0,16-5,14-10,27-10,42,0,12,5,23,9,34-3-12-2-25,7-34,2.54-1.9,5.47-2.6,8.56-2.6,1.78,0,3.61.23,5.44.6,15.07,3.77,28.37,11.09,43.24,11.09.92,0,1.84-.03,2.76-.09,12-1,23-4,34-9-3.87.77-7.75,1.25-11.56,1.25-6.03,0-11.92-1.19-17.44-4.25-8-5-9-14-6-22,5-12,9-25,10-38s-4-26-9-38h0Z"/>
</svg>